# xmcd
#
# Track frame offsets:
#	150
#	15707
#	24525
#	49260
#	62542
#	80635
#	109422
#	120665
#	136840
#
# Disc length: 2061 seconds
#
# Revision: 1
# Processed by: cddbd v1.4PL0 Copyright (c) Steve Scherf et al.
# Submitted via: EasyCDDAExtractor 6.0.0.1
#
DISCID=75080b09
DTITLE=Jeff Zak And The Other Guys - Things We Need
DYEAR=1995
DGENRE=Blues
TTITLE0=Feel So Right
TTITLE1=Shake Your Thang
TTITLE2=Just Let Me In
TTITLE3=Bucketafish
TTITLE4=Good To Bad
TTITLE5=Dear John
TTITLE6=Stomped
TTITLE7=I Wear A Frown
TTITLE8=Things We Need
EXTD=
EXTT0=
EXTT1=
EXTT2=
EXTT3=
EXTT4=
EXTT5=
EXTT6=
EXTT7=
EXTT8=
PLAYORDER=
